# xmcd
#
# Track frame offsets: 
#        150
#        22246
#        38208
#        56040
#        74277
#        93162
#        112369
#        131759
#        145564
#        162834
#        180647
#        196055
#        213945
#        232518
#        253244
#        276543
#        296971
#
# Disc length: 4266 seconds
#
# Revision: 0
# Processed by: cddbd v1.5.2PL0 Copyright (c) Steve Scherf et al.
# Submitted via: ExactAudioCopy v0.95b4
#
DISCID=0610a811
DTITLE=Various Artist - Don´s Black Vol 7
DYEAR=1900
DGENRE=
TTITLE0=Brandy and Monica - The boy is mine
TTITLE1=Backstreet Boys - As long as you love me
TTITLE2=Papa Bear - Honey Luv
TTITLE3=Queen Pen - It´s true
TTITLE4=Cardan feat. JD - Jam on it
TTITLE5=Mase feat. Puff Daddy - Looking at me
TTITLE6=Wu Tang Clan - Reunited
TTITLE7=Sweetbox - Shout
TTITLE8=2-4 family - Stay
TTITLE9=Mello and Freundeskreis - Tabula Rasa
TTITLE10=Jay Z and Blackstreet - The city is mine
TTITLE11=Marcus Anthony - We have money
TTITLE12=Aqua - Turn back time
TTITLE13=Boyzone - No matter what
TTITLE14=Spice Girls - Viva forever (extended)
TTITLE15=Snow - Informer
TTITLE16=Puff Daddy - Nobody can´t hold me down
EXTD=
EXTT0=
EXTT1=
EXTT2=
EXTT3=
EXTT4=
EXTT5=
EXTT6=
EXTT7=
EXTT8=
EXTT9=
EXTT10=
EXTT11=
EXTT12=
EXTT13=
EXTT14=
EXTT15=
EXTT16=
PLAYORDER=
